<svg xmlns="http://www.w3.org/2000/svg" xmlns:xlink="http://www.w3.org/1999/xlink" width="500" zoomAndPan="magnify" viewBox="0 0 375 374.999991" height="500" preserveAspectRatio="xMidYMid meet" version="1.0"><defs><g/><clipPath id="8102792abd"><path d="M 193 137 L 215.941406 137 L 215.941406 160 L 193 160 Z M 193 137 " clip-rule="nonzero"/></clipPath><clipPath id="0cf24d334d"><path d="M 88.328125 143 L 159 143 L 159 256.433594 L 88.328125 256.433594 Z M 88.328125 143 " clip-rule="nonzero"/></clipPath><clipPath id="a46ea1946b"><path d="M 65.941406 112.5 L 163 112.5 L 163 183 L 65.941406 183 Z M 65.941406 112.5 " clip-rule="nonzero"/></clipPath></defs><rect x="-37.5" width="450" fill="#ffffff" y="-37.499999" height="449.999989" fill-opacity="1"/><rect x="-37.5" width="450" fill="#ffffff" y="-37.499999" height="449.999989" fill-opacity="1"/><g clip-path="url(#8102792abd)"><path fill="#44a6d9" d="M 204.632812 137.949219 L 208.121094 146.164062 L 215.9375 146.164062 L 210.28125 151.679688 L 211.621094 159.464844 L 204.632812 155.78125 L 197.636719 159.464844 L 198.972656 151.679688 L 193.324219 146.164062 L 201.132812 146.164062 L 204.632812 137.949219 " fill-opacity="1" fill-rule="nonzero"/></g><path fill="#264790" d="M 179.375 115.703125 L 181.726562 121.238281 L 187 121.238281 L 183.1875 124.957031 L 184.089844 130.195312 L 179.375 127.71875 L 174.671875 130.195312 L 175.5625 124.957031 L 171.757812 121.238281 L 177.023438 121.238281 L 179.375 115.703125 " fill-opacity="1" fill-rule="nonzero"/><path fill="#44a6d9" d="M 163.449219 157.261719 L 164.996094 160.898438 L 168.453125 160.898438 L 165.949219 163.328125 L 166.546875 166.773438 L 163.449219 165.148438 L 160.363281 166.773438 L 160.957031 163.328125 L 158.457031 160.898438 L 161.910156 160.898438 L 163.449219 157.261719 " fill-opacity="1" fill-rule="nonzero"/><g clip-path="url(#0cf24d334d)"><path fill="#44a6d9" d="M 97.457031 192.121094 C 92.457031 221.46875 111.082031 249.402344 139.53125 256.433594 C 138.148438 256.300781 136.75 256.117188 135.351562 255.871094 C 104.601562 250.644531 83.910156 221.449219 89.148438 190.703125 C 94.386719 159.953125 123.570312 139.253906 154.320312 144.492188 C 155.71875 144.738281 157.101562 145.027344 158.457031 145.359375 C 129.28125 142.578125 102.460938 162.761719 97.457031 192.121094 " fill-opacity="1" fill-rule="evenodd"/></g><path fill="#264790" d="M 182.847656 235.671875 C 136.347656 262.152344 90.453125 197.410156 130.828125 162.296875 C 129.535156 163.042969 128.257812 163.84375 127.015625 164.730469 C 106.65625 179.167969 101.847656 207.378906 116.277344 227.738281 C 130.714844 248.097656 158.929688 252.898438 179.289062 238.46875 C 180.53125 237.585938 181.71875 236.652344 182.847656 235.671875 " fill-opacity="1" fill-rule="evenodd"/><g clip-path="url(#a46ea1946b)"><path fill="#264790" d="M 148.601562 129.089844 L 151.40625 135.871094 C 149.195312 135.632812 146.984375 135.519531 144.777344 135.519531 C 129.691406 135.519531 114.984375 140.878906 103.351562 150.605469 C 99.488281 153.832031 96.050781 157.480469 93.066406 161.457031 L 90.128906 154.347656 L 89.761719 153.464844 L 86.910156 153.265625 L 77.625 152.597656 L 71.003906 152.125 L 70.742188 152.109375 L 70.742188 171.804688 C 71.421875 172.207031 71.886719 172.941406 71.886719 173.78125 C 71.886719 174.496094 71.554688 175.144531 71.027344 175.554688 C 70.941406 175.632812 70.84375 175.703125 70.742188 175.757812 L 70.742188 177.917969 L 73.144531 182.726562 L 65.941406 182.726562 L 68.300781 178.003906 L 68.300781 175.886719 C 67.617188 175.496094 67.15625 174.761719 67.15625 173.910156 C 67.15625 173.117188 67.558594 172.417969 68.179688 172.003906 C 68.222656 171.96875 68.257812 171.933594 68.300781 171.910156 C 68.351562 171.875 68.398438 171.839844 68.457031 171.804688 L 68.457031 151.953125 L 108.011719 114.320312 L 152.527344 113.210938 L 162.59375 112.957031 L 148.601562 129.089844 " fill-opacity="1" fill-rule="evenodd"/></g><g fill="#264790" fill-opacity="1"><g transform="translate(123.178313, 215.301539)"><g><path d="M 3.203125 -44.046875 L 19.28125 -44.046875 C 23.757812 -44.046875 27.382812 -42.890625 30.15625 -40.578125 C 32.9375 -38.265625 34.328125 -34.898438 34.328125 -30.484375 C 34.328125 -26.066406 32.921875 -22.601562 30.109375 -20.09375 C 27.296875 -17.59375 23.6875 -16.34375 19.28125 -16.34375 L 13.234375 -16.34375 L 13.234375 0 L 3.203125 0 Z M 13.234375 -24.34375 L 16.078125 -24.34375 C 18.316406 -24.34375 20.15625 -24.796875 21.59375 -25.703125 C 23.039062 -26.609375 23.765625 -28.097656 23.765625 -30.171875 C 23.765625 -32.265625 23.039062 -33.765625 21.59375 -34.671875 C 20.15625 -35.578125 18.316406 -36.03125 16.078125 -36.03125 L 13.234375 -36.03125 Z M 13.234375 -24.34375 "/></g></g></g><g fill="#264790" fill-opacity="1"><g transform="translate(154.733925, 215.301539)"><g><path d="M 3.203125 0 L 3.203125 -27.390625 L 12.65625 -27.390625 L 12.65625 -23.4375 L 12.765625 -23.4375 C 12.828125 -23.582031 12.9375 -23.757812 13.09375 -23.96875 C 13.257812 -24.1875 13.609375 -24.5625 14.140625 -25.09375 C 14.679688 -25.625 15.253906 -26.101562 15.859375 -26.53125 C 16.460938 -26.957031 17.242188 -27.335938 18.203125 -27.671875 C 19.160156 -28.015625 20.140625 -28.1875 21.140625 -28.1875 C 22.171875 -28.1875 23.1875 -28.046875 24.1875 -27.765625 C 25.1875 -27.484375 25.914062 -27.195312 26.375 -26.90625 L 27.125 -26.484375 L 23.171875 -18.46875 C 21.992188 -19.46875 20.359375 -19.96875 18.265625 -19.96875 C 17.117188 -19.96875 16.132812 -19.71875 15.3125 -19.21875 C 14.5 -18.71875 13.921875 -18.113281 13.578125 -17.40625 C 13.242188 -16.695312 13.003906 -16.09375 12.859375 -15.59375 C 12.722656 -15.09375 12.65625 -14.703125 12.65625 -14.421875 L 12.65625 0 Z M 3.203125 0 "/></g></g></g><g fill="#264790" fill-opacity="1"><g transform="translate(177.319354, 215.301539)"><g><path d="M 30.90625 -12.390625 L 11.046875 -12.390625 C 11.046875 -10.460938 11.671875 -9.035156 12.921875 -8.109375 C 14.171875 -7.191406 15.523438 -6.734375 16.984375 -6.734375 C 18.515625 -6.734375 19.722656 -6.9375 20.609375 -7.34375 C 21.492188 -7.75 22.507812 -8.554688 23.65625 -9.765625 L 30.484375 -6.359375 C 27.640625 -1.585938 22.90625 0.796875 16.28125 0.796875 C 12.15625 0.796875 8.613281 -0.613281 5.65625 -3.4375 C 2.707031 -6.269531 1.234375 -9.675781 1.234375 -13.65625 C 1.234375 -17.644531 2.707031 -21.0625 5.65625 -23.90625 C 8.613281 -26.757812 12.15625 -28.1875 16.28125 -28.1875 C 20.625 -28.1875 24.15625 -26.929688 26.875 -24.421875 C 29.601562 -21.910156 30.96875 -18.328125 30.96875 -13.671875 C 30.96875 -13.023438 30.945312 -12.597656 30.90625 -12.390625 Z M 11.3125 -17.625 L 21.734375 -17.625 C 21.515625 -19.039062 20.953125 -20.128906 20.046875 -20.890625 C 19.140625 -21.660156 17.972656 -22.046875 16.546875 -22.046875 C 14.984375 -22.046875 13.738281 -21.632812 12.8125 -20.8125 C 11.882812 -20 11.382812 -18.9375 11.3125 -17.625 Z M 11.3125 -17.625 "/></g></g></g><g fill="#264790" fill-opacity="1"><g transform="translate(205.511147, 215.301539)"><g><path d="M 3.203125 0 L 3.203125 -27.390625 L 12.65625 -27.390625 L 12.65625 -24.5 L 12.765625 -24.5 C 15.210938 -26.957031 17.828125 -28.1875 20.609375 -28.1875 C 22.597656 -28.1875 24.460938 -27.773438 26.203125 -26.953125 C 27.953125 -26.140625 29.273438 -24.878906 30.171875 -23.171875 C 32.941406 -26.515625 35.96875 -28.1875 39.25 -28.1875 C 42.164062 -28.1875 44.671875 -27.367188 46.765625 -25.734375 C 48.867188 -24.097656 49.921875 -21.535156 49.921875 -18.046875 L 49.921875 0 L 40.46875 0 L 40.46875 -15.484375 C 40.46875 -16.941406 40.066406 -18.160156 39.265625 -19.140625 C 38.460938 -20.117188 37.265625 -20.609375 35.671875 -20.609375 C 34.273438 -20.609375 33.210938 -20.1875 32.484375 -19.34375 C 31.753906 -18.507812 31.351562 -17.507812 31.28125 -16.34375 L 31.28125 0 L 21.84375 0 L 21.84375 -15.484375 C 21.84375 -16.941406 21.441406 -18.160156 20.640625 -19.140625 C 19.835938 -20.117188 18.632812 -20.609375 17.03125 -20.609375 C 15.570312 -20.609375 14.476562 -20.15625 13.75 -19.25 C 13.019531 -18.34375 12.65625 -17.265625 12.65625 -16.015625 L 12.65625 0 Z M 3.203125 0 "/></g></g></g><g fill="#264790" fill-opacity="1"><g transform="translate(254.099427, 215.301539)"><g><path d="M 4.109375 -42.65625 C 5.210938 -43.757812 6.53125 -44.3125 8.0625 -44.3125 C 9.59375 -44.3125 10.910156 -43.757812 12.015625 -42.65625 C 13.117188 -41.550781 13.671875 -40.234375 13.671875 -38.703125 C 13.671875 -37.171875 13.117188 -35.851562 12.015625 -34.75 C 10.910156 -33.65625 9.59375 -33.109375 8.0625 -33.109375 C 6.53125 -33.109375 5.210938 -33.65625 4.109375 -34.75 C 3.003906 -35.851562 2.453125 -37.171875 2.453125 -38.703125 C 2.453125 -40.234375 3.003906 -41.550781 4.109375 -42.65625 Z M 3.203125 -27.390625 L 3.203125 0 L 12.65625 0 L 12.65625 -27.390625 Z M 3.203125 -27.390625 "/></g></g></g><g fill="#264790" fill-opacity="1"><g transform="translate(266.219639, 215.301539)"><g><path d="M 30.90625 -12.390625 L 11.046875 -12.390625 C 11.046875 -10.460938 11.671875 -9.035156 12.921875 -8.109375 C 14.171875 -7.191406 15.523438 -6.734375 16.984375 -6.734375 C 18.515625 -6.734375 19.722656 -6.9375 20.609375 -7.34375 C 21.492188 -7.75 22.507812 -8.554688 23.65625 -9.765625 L 30.484375 -6.359375 C 27.640625 -1.585938 22.90625 0.796875 16.28125 0.796875 C 12.15625 0.796875 8.613281 -0.613281 5.65625 -3.4375 C 2.707031 -6.269531 1.234375 -9.675781 1.234375 -13.65625 C 1.234375 -17.644531 2.707031 -21.0625 5.65625 -23.90625 C 8.613281 -26.757812 12.15625 -28.1875 16.28125 -28.1875 C 20.625 -28.1875 24.15625 -26.929688 26.875 -24.421875 C 29.601562 -21.910156 30.96875 -18.328125 30.96875 -13.671875 C 30.96875 -13.023438 30.945312 -12.597656 30.90625 -12.390625 Z M 11.3125 -17.625 L 21.734375 -17.625 C 21.515625 -19.039062 20.953125 -20.128906 20.046875 -20.890625 C 19.140625 -21.660156 17.972656 -22.046875 16.546875 -22.046875 C 14.984375 -22.046875 13.738281 -21.632812 12.8125 -20.8125 C 11.882812 -20 11.382812 -18.9375 11.3125 -17.625 Z M 11.3125 -17.625 "/></g></g></g><g fill="#264790" fill-opacity="1"><g transform="translate(294.411441, 215.301539)"><g><path d="M 3.203125 0 L 3.203125 -27.390625 L 12.65625 -27.390625 L 12.65625 -23.4375 L 12.765625 -23.4375 C 12.828125 -23.582031 12.9375 -23.757812 13.09375 -23.96875 C 13.257812 -24.1875 13.609375 -24.5625 14.140625 -25.09375 C 14.679688 -25.625 15.253906 -26.101562 15.859375 -26.53125 C 16.460938 -26.957031 17.242188 -27.335938 18.203125 -27.671875 C 19.160156 -28.015625 20.140625 -28.1875 21.140625 -28.1875 C 22.171875 -28.1875 23.1875 -28.046875 24.1875 -27.765625 C 25.1875 -27.484375 25.914062 -27.195312 26.375 -26.90625 L 27.125 -26.484375 L 23.171875 -18.46875 C 21.992188 -19.46875 20.359375 -19.96875 18.265625 -19.96875 C 17.117188 -19.96875 16.132812 -19.71875 15.3125 -19.21875 C 14.5 -18.71875 13.921875 -18.113281 13.578125 -17.40625 C 13.242188 -16.695312 13.003906 -16.09375 12.859375 -15.59375 C 12.722656 -15.09375 12.65625 -14.703125 12.65625 -14.421875 L 12.65625 0 Z M 3.203125 0 "/></g></g></g><g fill="#264790" fill-opacity="1"><g transform="translate(163.97642, 232.089652)"><g><path d="M 6.03125 -4.859375 L 6.03125 -7.78125 L 7.578125 -7.78125 L 7.578125 0 L 6.03125 0 L 6.03125 -3.546875 L 2.546875 -3.546875 L 2.546875 0 L 1.015625 0 L 1.015625 -7.78125 L 2.546875 -7.78125 L 2.546875 -4.859375 Z M 6.03125 -4.859375 "/></g></g></g><g fill="#264790" fill-opacity="1"><g transform="translate(176.991473, 232.089652)"><g><path d="M 4.25 0.109375 C 3.53125 0.109375 2.894531 -0.0351562 2.34375 -0.328125 C 1.800781 -0.617188 1.375 -1.0625 1.0625 -1.65625 C 0.757812 -2.257812 0.609375 -3.003906 0.609375 -3.890625 C 0.609375 -4.785156 0.757812 -5.53125 1.0625 -6.125 C 1.375 -6.726562 1.800781 -7.171875 2.34375 -7.453125 C 2.894531 -7.742188 3.53125 -7.890625 4.25 -7.890625 C 4.957031 -7.890625 5.582031 -7.742188 6.125 -7.453125 C 6.664062 -7.171875 7.085938 -6.726562 7.390625 -6.125 C 7.703125 -5.53125 7.859375 -4.785156 7.859375 -3.890625 C 7.859375 -3.003906 7.703125 -2.257812 7.390625 -1.65625 C 7.085938 -1.050781 6.664062 -0.601562 6.125 -0.3125 C 5.582031 -0.03125 4.957031 0.109375 4.25 0.109375 Z M 4.25 -1.21875 C 4.90625 -1.21875 5.40625 -1.429688 5.75 -1.859375 C 6.101562 -2.285156 6.28125 -2.960938 6.28125 -3.890625 C 6.28125 -4.816406 6.101562 -5.492188 5.75 -5.921875 C 5.40625 -6.347656 4.90625 -6.5625 4.25 -6.5625 C 3.582031 -6.5625 3.070312 -6.347656 2.71875 -5.921875 C 2.375 -5.492188 2.203125 -4.816406 2.203125 -3.890625 C 2.203125 -2.960938 2.375 -2.285156 2.71875 -1.859375 C 3.070312 -1.429688 3.582031 -1.21875 4.25 -1.21875 Z M 4.25 -1.21875 "/></g></g></g><g fill="#264790" fill-opacity="1"><g transform="translate(189.899981, 232.089652)"><g><path d="M 2.421875 0 L 1.015625 0 L 1.015625 -7.78125 L 3.03125 -7.78125 L 5 -2.0625 L 5.109375 -2.0625 L 7.0625 -7.78125 L 9.03125 -7.78125 L 9.03125 0 L 7.578125 0 L 7.578125 -5.140625 L 7.4375 -5.171875 L 5.640625 0 L 4.359375 0 L 2.5625 -5.171875 L 2.421875 -5.140625 Z M 2.421875 0 "/></g></g></g><g fill="#264790" fill-opacity="1"><g transform="translate(204.374694, 232.089652)"><g><path d="M 2.546875 -3.421875 L 2.546875 -1.28125 L 6.265625 -1.28125 L 6.265625 0 L 1.015625 0 L 1.015625 -7.78125 L 6.1875 -7.78125 L 6.1875 -6.5 L 2.546875 -6.5 L 2.546875 -4.671875 L 5.71875 -4.671875 L 5.71875 -3.421875 Z M 2.546875 -3.421875 "/></g></g></g><g fill="#264790" fill-opacity="1"><g transform="translate(215.493255, 232.089652)"><g/></g></g><g fill="#264790" fill-opacity="1"><g transform="translate(222.488547, 232.089652)"><g><path d="M 6.234375 -7.78125 L 6.234375 -6.484375 L 4 -6.484375 L 4 0 L 2.453125 0 L 2.453125 -6.484375 L 0.21875 -6.484375 L 0.21875 -7.78125 Z M 6.234375 -7.78125 "/></g></g></g><g fill="#264790" fill-opacity="1"><g transform="translate(233.36738, 232.089652)"><g><path d="M 4.125 0.109375 C 3.050781 0.109375 2.253906 -0.144531 1.734375 -0.65625 C 1.222656 -1.164062 0.96875 -1.921875 0.96875 -2.921875 L 0.96875 -7.78125 L 2.46875 -7.78125 L 2.46875 -2.921875 C 2.46875 -2.359375 2.601562 -1.929688 2.875 -1.640625 C 3.15625 -1.359375 3.570312 -1.21875 4.125 -1.21875 C 5.226562 -1.21875 5.78125 -1.785156 5.78125 -2.921875 L 5.78125 -7.78125 L 7.296875 -7.78125 L 7.296875 -2.921875 C 7.296875 -1.921875 7.035156 -1.164062 6.515625 -0.65625 C 5.992188 -0.144531 5.195312 0.109375 4.125 0.109375 Z M 4.125 0.109375 "/></g></g></g><g fill="#264790" fill-opacity="1"><g transform="translate(246.046815, 232.089652)"><g><path d="M 2.546875 0 L 1.015625 0 L 1.015625 -7.78125 L 2.546875 -7.78125 Z M 2.546875 0 "/></g></g></g><g fill="#264790" fill-opacity="1"><g transform="translate(254.038292, 232.089652)"><g><path d="M 6.234375 -7.78125 L 6.234375 -6.484375 L 4 -6.484375 L 4 0 L 2.453125 0 L 2.453125 -6.484375 L 0.21875 -6.484375 L 0.21875 -7.78125 Z M 6.234375 -7.78125 "/></g></g></g><g fill="#264790" fill-opacity="1"><g transform="translate(264.917125, 232.089652)"><g><path d="M 2.546875 0 L 1.015625 0 L 1.015625 -7.78125 L 2.546875 -7.78125 Z M 2.546875 0 "/></g></g></g><g fill="#264790" fill-opacity="1"><g transform="translate(272.908603, 232.089652)"><g><path d="M 4.25 0.109375 C 3.53125 0.109375 2.894531 -0.0351562 2.34375 -0.328125 C 1.800781 -0.617188 1.375 -1.0625 1.0625 -1.65625 C 0.757812 -2.257812 0.609375 -3.003906 0.609375 -3.890625 C 0.609375 -4.785156 0.757812 -5.53125 1.0625 -6.125 C 1.375 -6.726562 1.800781 -7.171875 2.34375 -7.453125 C 2.894531 -7.742188 3.53125 -7.890625 4.25 -7.890625 C 4.957031 -7.890625 5.582031 -7.742188 6.125 -7.453125 C 6.664062 -7.171875 7.085938 -6.726562 7.390625 -6.125 C 7.703125 -5.53125 7.859375 -4.785156 7.859375 -3.890625 C 7.859375 -3.003906 7.703125 -2.257812 7.390625 -1.65625 C 7.085938 -1.050781 6.664062 -0.601562 6.125 -0.3125 C 5.582031 -0.03125 4.957031 0.109375 4.25 0.109375 Z M 4.25 -1.21875 C 4.90625 -1.21875 5.40625 -1.429688 5.75 -1.859375 C 6.101562 -2.285156 6.28125 -2.960938 6.28125 -3.890625 C 6.28125 -4.816406 6.101562 -5.492188 5.75 -5.921875 C 5.40625 -6.347656 4.90625 -6.5625 4.25 -6.5625 C 3.582031 -6.5625 3.070312 -6.347656 2.71875 -5.921875 C 2.375 -5.492188 2.203125 -4.816406 2.203125 -3.890625 C 2.203125 -2.960938 2.375 -2.285156 2.71875 -1.859375 C 3.070312 -1.429688 3.582031 -1.21875 4.25 -1.21875 Z M 4.25 -1.21875 "/></g></g></g><g fill="#264790" fill-opacity="1"><g transform="translate(285.817114, 232.089652)"><g><path d="M 2.5 0 L 1.015625 0 L 1.015625 -7.78125 L 2.78125 -7.78125 L 5.90625 -2.765625 L 6.03125 -2.796875 L 6.03125 -7.78125 L 7.515625 -7.78125 L 7.515625 0 L 5.9375 0 L 2.640625 -5.359375 L 2.5 -5.34375 Z M 2.5 0 "/></g></g></g><g fill="#264790" fill-opacity="1"><g transform="translate(18.993398, 276.086759)"><g><path d="M 1.1875 0 L 1.1875 -9.609375 L 4.1875 -9.609375 C 5.238281 -9.609375 6.132812 -9.367188 6.875 -8.890625 C 7.625 -8.410156 8 -7.625 8 -6.53125 C 8 -5.4375 7.597656 -4.628906 6.796875 -4.109375 C 5.992188 -3.597656 5.082031 -3.34375 4.0625 -3.34375 L 3.015625 -3.34375 L 3.015625 0 Z M 4.140625 -8.078125 L 3.015625 -8.078125 L 3.015625 -4.859375 L 4.171875 -4.859375 C 4.710938 -4.859375 5.148438 -4.984375 5.484375 -5.234375 C 5.828125 -5.484375 6.019531 -5.875 6.0625 -6.40625 C 6.0625 -7.03125 5.890625 -7.460938 5.546875 -7.703125 C 5.210938 -7.953125 4.742188 -8.078125 4.140625 -8.078125 Z M 4.140625 -8.078125 "/></g></g></g><g fill="#264790" fill-opacity="1"><g transform="translate(29.062929, 276.086759)"><g><path d="M 4.421875 0.171875 C 3.234375 0.171875 2.296875 -0.148438 1.609375 -0.796875 C 0.929688 -1.453125 0.59375 -2.328125 0.59375 -3.421875 C 0.59375 -4.515625 0.898438 -5.390625 1.515625 -6.046875 C 2.128906 -6.703125 2.972656 -7.03125 4.046875 -7.03125 C 5.117188 -7.03125 5.90625 -6.675781 6.40625 -5.96875 C 6.90625 -5.257812 7.15625 -4.421875 7.15625 -3.453125 L 7.15625 -2.875 L 2.546875 -2.875 C 2.628906 -2.425781 2.832031 -2.066406 3.15625 -1.796875 C 3.488281 -1.523438 3.925781 -1.390625 4.46875 -1.390625 C 4.769531 -1.390625 5.046875 -1.429688 5.296875 -1.515625 C 5.546875 -1.597656 5.835938 -1.710938 6.171875 -1.859375 L 6.703125 -0.53125 C 6.390625 -0.289062 6.003906 -0.113281 5.546875 0 C 5.085938 0.113281 4.710938 0.171875 4.421875 0.171875 Z M 5.421875 -4.109375 C 5.328125 -4.566406 5.15625 -4.90625 4.90625 -5.125 C 4.664062 -5.351562 4.363281 -5.46875 4 -5.46875 C 3.625 -5.46875 3.304688 -5.351562 3.046875 -5.125 C 2.796875 -4.894531 2.632812 -4.554688 2.5625 -4.109375 Z M 5.421875 -4.109375 "/></g></g></g><g fill="#264790" fill-opacity="1"><g transform="translate(38.256942, 276.086759)"><g><path d="M 4.640625 -6.84375 L 5 -5.375 C 4.6875 -5.375 4.328125 -5.285156 3.921875 -5.109375 C 3.515625 -4.929688 3.113281 -4.671875 2.71875 -4.328125 L 2.71875 0 L 0.875 0 L 0.875 -6.84375 L 1.84375 -6.84375 L 2.4375 -5.84375 C 2.726562 -6.09375 3.070312 -6.320312 3.46875 -6.53125 C 3.875 -6.738281 4.265625 -6.84375 4.640625 -6.84375 Z M 4.640625 -6.84375 "/></g></g></g><g fill="#264790" fill-opacity="1"><g transform="translate(44.810312, 276.086759)"><g><path d="M 4.90625 -5 C 4.570312 -5.144531 4.265625 -5.257812 3.984375 -5.34375 C 3.703125 -5.425781 3.398438 -5.46875 3.078125 -5.46875 C 2.835938 -5.46875 2.65625 -5.421875 2.53125 -5.328125 C 2.40625 -5.242188 2.34375 -5.117188 2.34375 -4.953125 C 2.34375 -4.835938 2.421875 -4.726562 2.578125 -4.625 C 2.734375 -4.53125 2.984375 -4.421875 3.328125 -4.296875 C 3.898438 -4.085938 4.429688 -3.796875 4.921875 -3.421875 C 5.421875 -3.054688 5.671875 -2.578125 5.671875 -1.984375 C 5.671875 -1.296875 5.425781 -0.765625 4.9375 -0.390625 C 4.445312 -0.015625 3.738281 0.171875 2.8125 0.171875 C 2.519531 0.171875 2.128906 0.113281 1.640625 0 C 1.160156 -0.113281 0.757812 -0.289062 0.4375 -0.53125 L 0.984375 -1.859375 C 1.316406 -1.710938 1.632812 -1.597656 1.9375 -1.515625 C 2.25 -1.429688 2.53125 -1.390625 2.78125 -1.390625 C 3.125 -1.390625 3.382812 -1.4375 3.5625 -1.53125 C 3.738281 -1.632812 3.828125 -1.757812 3.828125 -1.90625 C 3.828125 -2.09375 3.738281 -2.257812 3.5625 -2.40625 C 3.382812 -2.5625 3.101562 -2.703125 2.71875 -2.828125 C 2.164062 -3.003906 1.644531 -3.257812 1.15625 -3.59375 C 0.675781 -3.925781 0.4375 -4.375 0.4375 -4.9375 C 0.4375 -5.59375 0.675781 -6.101562 1.15625 -6.46875 C 1.632812 -6.84375 2.285156 -7.03125 3.109375 -7.03125 C 3.398438 -7.03125 3.773438 -6.96875 4.234375 -6.84375 C 4.691406 -6.726562 5.097656 -6.550781 5.453125 -6.3125 Z M 4.90625 -5 "/></g></g></g><g fill="#264790" fill-opacity="1"><g transform="translate(52.408639, 276.086759)"><g><path d="M 4.046875 0.171875 C 2.960938 0.171875 2.113281 -0.15625 1.5 -0.8125 C 0.894531 -1.46875 0.59375 -2.347656 0.59375 -3.453125 C 0.59375 -4.535156 0.910156 -5.398438 1.546875 -6.046875 C 2.179688 -6.703125 3.050781 -7.03125 4.15625 -7.03125 C 5.289062 -7.03125 6.171875 -6.691406 6.796875 -6.015625 C 7.421875 -5.347656 7.734375 -4.46875 7.734375 -3.375 C 7.734375 -2.28125 7.394531 -1.414062 6.71875 -0.78125 C 6.039062 -0.144531 5.148438 0.171875 4.046875 0.171875 Z M 5.84375 -3.375 C 5.84375 -4.019531 5.695312 -4.53125 5.40625 -4.90625 C 5.125 -5.28125 4.71875 -5.46875 4.1875 -5.46875 C 3.65625 -5.46875 3.238281 -5.300781 2.9375 -4.96875 C 2.632812 -4.644531 2.484375 -4.140625 2.484375 -3.453125 C 2.484375 -2.773438 2.613281 -2.257812 2.875 -1.90625 C 3.132812 -1.5625 3.53125 -1.390625 4.0625 -1.390625 C 4.59375 -1.390625 5.019531 -1.546875 5.34375 -1.859375 C 5.675781 -2.179688 5.84375 -2.6875 5.84375 -3.375 Z M 5.84375 -3.375 "/></g></g></g><g fill="#264790" fill-opacity="1"><g transform="translate(62.238106, 276.086759)"><g><path d="M 2.390625 -6.109375 C 2.703125 -6.421875 3.085938 -6.664062 3.546875 -6.84375 C 4.015625 -7.03125 4.429688 -7.125 4.796875 -7.125 C 5.734375 -7.125 6.394531 -6.847656 6.78125 -6.296875 C 7.175781 -5.753906 7.375 -5.085938 7.375 -4.296875 L 7.375 0 L 5.53125 0 L 5.53125 -4.203125 C 5.53125 -4.640625 5.425781 -4.972656 5.21875 -5.203125 C 5.019531 -5.429688 4.722656 -5.546875 4.328125 -5.546875 C 4.054688 -5.546875 3.773438 -5.476562 3.484375 -5.34375 C 3.203125 -5.207031 2.945312 -5.050781 2.71875 -4.875 L 2.71875 0 L 0.875 0 L 0.875 -6.84375 L 1.84375 -6.84375 Z M 2.390625 -6.109375 "/></g></g></g><g fill="#264790" fill-opacity="1"><g transform="translate(71.926365, 276.086759)"><g><path d="M 2.25 -2.046875 C 2.25 -1.847656 2.328125 -1.671875 2.484375 -1.515625 C 2.640625 -1.359375 2.851562 -1.28125 3.125 -1.28125 C 3.375 -1.28125 3.628906 -1.335938 3.890625 -1.453125 C 4.148438 -1.566406 4.398438 -1.738281 4.640625 -1.96875 L 4.640625 -3.015625 L 3.25 -3.015625 C 2.925781 -3.015625 2.675781 -2.914062 2.5 -2.71875 C 2.332031 -2.519531 2.25 -2.296875 2.25 -2.046875 Z M 3.15625 0.171875 C 2.3125 0.171875 1.6875 -0.03125 1.28125 -0.4375 C 0.875 -0.851562 0.671875 -1.390625 0.671875 -2.046875 C 0.671875 -2.753906 0.910156 -3.296875 1.390625 -3.671875 C 1.878906 -4.046875 2.507812 -4.234375 3.28125 -4.234375 L 4.625 -4.234375 C 4.613281 -4.585938 4.507812 -4.859375 4.3125 -5.046875 C 4.125 -5.242188 3.859375 -5.34375 3.515625 -5.34375 C 3.191406 -5.34375 2.84375 -5.296875 2.46875 -5.203125 C 2.09375 -5.117188 1.78125 -5.015625 1.53125 -4.890625 L 1.03125 -6.40625 C 1.289062 -6.59375 1.691406 -6.742188 2.234375 -6.859375 C 2.773438 -6.972656 3.191406 -7.03125 3.484375 -7.03125 C 4.304688 -7.03125 5.007812 -6.789062 5.59375 -6.3125 C 6.175781 -5.84375 6.46875 -5.238281 6.46875 -4.5 L 6.46875 0 L 5.515625 0 L 5.078125 -0.578125 C 4.816406 -0.378906 4.515625 -0.203125 4.171875 -0.046875 C 3.828125 0.0976562 3.488281 0.171875 3.15625 0.171875 Z M 3.15625 0.171875 "/></g></g></g><g fill="#264790" fill-opacity="1"><g transform="translate(80.710872, 276.086759)"><g><path d="M 2.796875 -9.96875 L 2.796875 0 L 0.96875 0 L 0.96875 -9.8125 Z M 2.796875 -9.96875 "/></g></g></g><g fill="#264790" fill-opacity="1"><g transform="translate(85.965094, 276.086759)"><g><path d="M 1.796875 -9.890625 C 2.085938 -9.890625 2.332031 -9.789062 2.53125 -9.59375 C 2.738281 -9.394531 2.84375 -9.148438 2.84375 -8.859375 C 2.84375 -8.566406 2.738281 -8.320312 2.53125 -8.125 C 2.332031 -7.925781 2.085938 -7.828125 1.796875 -7.828125 C 1.515625 -7.828125 1.273438 -7.925781 1.078125 -8.125 C 0.878906 -8.320312 0.78125 -8.566406 0.78125 -8.859375 C 0.78125 -9.148438 0.878906 -9.394531 1.078125 -9.59375 C 1.273438 -9.789062 1.515625 -9.890625 1.796875 -9.890625 Z M 2.71875 -6.84375 L 2.71875 0 L 0.875 0 L 0.875 -6.84375 Z M 2.71875 -6.84375 "/></g></g></g><g fill="#264790" fill-opacity="1"><g transform="translate(91.078108, 276.086759)"><g><path d="M 4.90625 -5 C 4.570312 -5.144531 4.265625 -5.257812 3.984375 -5.34375 C 3.703125 -5.425781 3.398438 -5.46875 3.078125 -5.46875 C 2.835938 -5.46875 2.65625 -5.421875 2.53125 -5.328125 C 2.40625 -5.242188 2.34375 -5.117188 2.34375 -4.953125 C 2.34375 -4.835938 2.421875 -4.726562 2.578125 -4.625 C 2.734375 -4.53125 2.984375 -4.421875 3.328125 -4.296875 C 3.898438 -4.085938 4.429688 -3.796875 4.921875 -3.421875 C 5.421875 -3.054688 5.671875 -2.578125 5.671875 -1.984375 C 5.671875 -1.296875 5.425781 -0.765625 4.9375 -0.390625 C 4.445312 -0.015625 3.738281 0.171875 2.8125 0.171875 C 2.519531 0.171875 2.128906 0.113281 1.640625 0 C 1.160156 -0.113281 0.757812 -0.289062 0.4375 -0.53125 L 0.984375 -1.859375 C 1.316406 -1.710938 1.632812 -1.597656 1.9375 -1.515625 C 2.25 -1.429688 2.53125 -1.390625 2.78125 -1.390625 C 3.125 -1.390625 3.382812 -1.4375 3.5625 -1.53125 C 3.738281 -1.632812 3.828125 -1.757812 3.828125 -1.90625 C 3.828125 -2.09375 3.738281 -2.257812 3.5625 -2.40625 C 3.382812 -2.5625 3.101562 -2.703125 2.71875 -2.828125 C 2.164062 -3.003906 1.644531 -3.257812 1.15625 -3.59375 C 0.675781 -3.925781 0.4375 -4.375 0.4375 -4.9375 C 0.4375 -5.59375 0.675781 -6.101562 1.15625 -6.46875 C 1.632812 -6.84375 2.285156 -7.03125 3.109375 -7.03125 C 3.398438 -7.03125 3.773438 -6.96875 4.234375 -6.84375 C 4.691406 -6.726562 5.097656 -6.550781 5.453125 -6.3125 Z M 4.90625 -5 "/></g></g></g><g fill="#264790" fill-opacity="1"><g transform="translate(98.676435, 276.086759)"><g><path d="M 4.421875 0.171875 C 3.234375 0.171875 2.296875 -0.148438 1.609375 -0.796875 C 0.929688 -1.453125 0.59375 -2.328125 0.59375 -3.421875 C 0.59375 -4.515625 0.898438 -5.390625 1.515625 -6.046875 C 2.128906 -6.703125 2.972656 -7.03125 4.046875 -7.03125 C 5.117188 -7.03125 5.90625 -6.675781 6.40625 -5.96875 C 6.90625 -5.257812 7.15625 -4.421875 7.15625 -3.453125 L 7.15625 -2.875 L 2.546875 -2.875 C 2.628906 -2.425781 2.832031 -2.066406 3.15625 -1.796875 C 3.488281 -1.523438 3.925781 -1.390625 4.46875 -1.390625 C 4.769531 -1.390625 5.046875 -1.429688 5.296875 -1.515625 C 5.546875 -1.597656 5.835938 -1.710938 6.171875 -1.859375 L 6.703125 -0.53125 C 6.390625 -0.289062 6.003906 -0.113281 5.546875 0 C 5.085938 0.113281 4.710938 0.171875 4.421875 0.171875 Z M 5.421875 -4.109375 C 5.328125 -4.566406 5.15625 -4.90625 4.90625 -5.125 C 4.664062 -5.351562 4.363281 -5.46875 4 -5.46875 C 3.625 -5.46875 3.304688 -5.351562 3.046875 -5.125 C 2.796875 -4.894531 2.632812 -4.554688 2.5625 -4.109375 Z M 5.421875 -4.109375 "/></g></g></g><g fill="#264790" fill-opacity="1"><g transform="translate(107.870446, 276.086759)"><g><path d="M 4.1875 -5.546875 C 3.550781 -5.546875 3.109375 -5.316406 2.859375 -4.859375 C 2.609375 -4.410156 2.484375 -3.945312 2.484375 -3.46875 C 2.484375 -2.9375 2.59375 -2.457031 2.8125 -2.03125 C 3.039062 -1.601562 3.5 -1.390625 4.1875 -1.390625 C 4.40625 -1.390625 4.632812 -1.4375 4.875 -1.53125 C 5.113281 -1.632812 5.335938 -1.753906 5.546875 -1.890625 L 5.546875 -5.0625 C 5.335938 -5.195312 5.113281 -5.3125 4.875 -5.40625 C 4.632812 -5.5 4.40625 -5.546875 4.1875 -5.546875 Z M 7.40625 -9.96875 L 7.40625 0 L 6.4375 0 L 5.9375 -0.65625 C 5.625 -0.394531 5.253906 -0.191406 4.828125 -0.046875 C 4.410156 0.0976562 4.035156 0.171875 3.703125 0.171875 C 2.703125 0.171875 1.929688 -0.175781 1.390625 -0.875 C 0.859375 -1.570312 0.59375 -2.4375 0.59375 -3.46875 C 0.59375 -4.507812 0.875 -5.378906 1.4375 -6.078125 C 2.007812 -6.773438 2.789062 -7.125 3.78125 -7.125 C 4.039062 -7.125 4.328125 -7.078125 4.640625 -6.984375 C 4.960938 -6.890625 5.265625 -6.765625 5.546875 -6.609375 L 5.546875 -9.8125 Z M 7.40625 -9.96875 "/></g></g></g><g fill="#264790" fill-opacity="1"><g transform="translate(117.728163, 276.086759)"><g/></g></g><g fill="#264790" fill-opacity="1"><g transform="translate(122.55876, 276.086759)"><g><path d="M 7.90625 0 L 1.1875 0 L 1.1875 -9.609375 L 6.921875 -9.609375 L 7.203125 -8.171875 L 3.015625 -8.171875 L 3.015625 -5.578125 L 5.578125 -5.578125 L 5.875 -4.125 L 3.015625 -4.125 L 3.015625 -1.421875 L 7.609375 -1.421875 Z M 7.90625 0 "/></g></g></g><g fill="#264790" fill-opacity="1"><g transform="translate(132.247018, 276.086759)"><g><path d="M 4.1875 -5.546875 C 3.550781 -5.546875 3.109375 -5.316406 2.859375 -4.859375 C 2.609375 -4.410156 2.484375 -3.945312 2.484375 -3.46875 C 2.484375 -2.9375 2.59375 -2.457031 2.8125 -2.03125 C 3.039062 -1.601562 3.5 -1.390625 4.1875 -1.390625 C 4.40625 -1.390625 4.632812 -1.4375 4.875 -1.53125 C 5.113281 -1.632812 5.335938 -1.753906 5.546875 -1.890625 L 5.546875 -5.0625 C 5.335938 -5.195312 5.113281 -5.3125 4.875 -5.40625 C 4.632812 -5.5 4.40625 -5.546875 4.1875 -5.546875 Z M 7.40625 -9.96875 L 7.40625 0 L 6.4375 0 L 5.9375 -0.65625 C 5.625 -0.394531 5.253906 -0.191406 4.828125 -0.046875 C 4.410156 0.0976562 4.035156 0.171875 3.703125 0.171875 C 2.703125 0.171875 1.929688 -0.175781 1.390625 -0.875 C 0.859375 -1.570312 0.59375 -2.4375 0.59375 -3.46875 C 0.59375 -4.507812 0.875 -5.378906 1.4375 -6.078125 C 2.007812 -6.773438 2.789062 -7.125 3.78125 -7.125 C 4.039062 -7.125 4.328125 -7.078125 4.640625 -6.984375 C 4.960938 -6.890625 5.265625 -6.765625 5.546875 -6.609375 L 5.546875 -9.8125 Z M 7.40625 -9.96875 "/></g></g></g><g fill="#264790" fill-opacity="1"><g transform="translate(142.104729, 276.086759)"><g><path d="M 5.75 -0.671875 C 5.4375 -0.378906 5.050781 -0.148438 4.59375 0.015625 C 4.144531 0.191406 3.738281 0.28125 3.375 0.28125 C 2.445312 0.28125 1.785156 0.00390625 1.390625 -0.546875 C 1.003906 -1.097656 0.8125 -1.765625 0.8125 -2.546875 L 0.8125 -6.84375 L 2.65625 -6.84375 L 2.65625 -2.625 C 2.65625 -2.195312 2.757812 -1.863281 2.96875 -1.625 C 3.175781 -1.394531 3.476562 -1.28125 3.875 -1.28125 C 4.113281 -1.28125 4.367188 -1.34375 4.640625 -1.46875 C 4.921875 -1.59375 5.171875 -1.734375 5.390625 -1.890625 L 5.390625 -6.84375 L 7.234375 -6.84375 L 7.234375 0 L 6.265625 0 Z M 5.75 -0.671875 "/></g></g></g><g fill="#264790" fill-opacity="1"><g transform="translate(151.722378, 276.086759)"><g><path d="M 4.140625 -5.46875 C 3.617188 -5.46875 3.210938 -5.269531 2.921875 -4.875 C 2.628906 -4.488281 2.484375 -4.003906 2.484375 -3.421875 C 2.484375 -2.828125 2.628906 -2.335938 2.921875 -1.953125 C 3.210938 -1.578125 3.617188 -1.390625 4.140625 -1.390625 C 4.460938 -1.390625 4.75 -1.429688 5 -1.515625 C 5.257812 -1.597656 5.554688 -1.710938 5.890625 -1.859375 L 6.40625 -0.53125 C 6.09375 -0.289062 5.707031 -0.113281 5.25 0 C 4.789062 0.113281 4.414062 0.171875 4.125 0.171875 C 3.007812 0.171875 2.140625 -0.148438 1.515625 -0.796875 C 0.898438 -1.453125 0.59375 -2.328125 0.59375 -3.421875 C 0.59375 -4.515625 0.898438 -5.390625 1.515625 -6.046875 C 2.140625 -6.703125 3.007812 -7.03125 4.125 -7.03125 C 4.414062 -7.03125 4.785156 -6.96875 5.234375 -6.84375 C 5.679688 -6.726562 6.070312 -6.550781 6.40625 -6.3125 L 5.890625 -5 C 5.554688 -5.144531 5.257812 -5.257812 5 -5.34375 C 4.75 -5.425781 4.460938 -5.46875 4.140625 -5.46875 Z M 4.140625 -5.46875 "/></g></g></g><g fill="#264790" fill-opacity="1"><g transform="translate(160.083248, 276.086759)"><g><path d="M 2.25 -2.046875 C 2.25 -1.847656 2.328125 -1.671875 2.484375 -1.515625 C 2.640625 -1.359375 2.851562 -1.28125 3.125 -1.28125 C 3.375 -1.28125 3.628906 -1.335938 3.890625 -1.453125 C 4.148438 -1.566406 4.398438 -1.738281 4.640625 -1.96875 L 4.640625 -3.015625 L 3.25 -3.015625 C 2.925781 -3.015625 2.675781 -2.914062 2.5 -2.71875 C 2.332031 -2.519531 2.25 -2.296875 2.25 -2.046875 Z M 3.15625 0.171875 C 2.3125 0.171875 1.6875 -0.03125 1.28125 -0.4375 C 0.875 -0.851562 0.671875 -1.390625 0.671875 -2.046875 C 0.671875 -2.753906 0.910156 -3.296875 1.390625 -3.671875 C 1.878906 -4.046875 2.507812 -4.234375 3.28125 -4.234375 L 4.625 -4.234375 C 4.613281 -4.585938 4.507812 -4.859375 4.3125 -5.046875 C 4.125 -5.242188 3.859375 -5.34375 3.515625 -5.34375 C 3.191406 -5.34375 2.84375 -5.296875 2.46875 -5.203125 C 2.09375 -5.117188 1.78125 -5.015625 1.53125 -4.890625 L 1.03125 -6.40625 C 1.289062 -6.59375 1.691406 -6.742188 2.234375 -6.859375 C 2.773438 -6.972656 3.191406 -7.03125 3.484375 -7.03125 C 4.304688 -7.03125 5.007812 -6.789062 5.59375 -6.3125 C 6.175781 -5.84375 6.46875 -5.238281 6.46875 -4.5 L 6.46875 0 L 5.515625 0 L 5.078125 -0.578125 C 4.816406 -0.378906 4.515625 -0.203125 4.171875 -0.046875 C 3.828125 0.0976562 3.488281 0.171875 3.15625 0.171875 Z M 3.15625 0.171875 "/></g></g></g><g fill="#264790" fill-opacity="1"><g transform="translate(168.867755, 276.086759)"><g><path d="M 5.109375 -0.140625 C 4.960938 -0.015625 4.75 0.0820312 4.46875 0.15625 C 4.1875 0.238281 3.941406 0.28125 3.734375 0.28125 C 2.878906 0.28125 2.207031 0.0664062 1.71875 -0.359375 C 1.238281 -0.785156 1 -1.394531 1 -2.1875 L 1 -5.421875 L 0.078125 -5.421875 L 0.078125 -6.84375 L 1 -6.84375 L 1 -8.46875 L 2.828125 -8.78125 L 2.828125 -6.84375 L 4.0625 -6.84375 L 4.640625 -5.421875 L 2.828125 -5.421875 L 2.828125 -2.515625 C 2.828125 -2.160156 2.910156 -1.863281 3.078125 -1.625 C 3.242188 -1.394531 3.492188 -1.28125 3.828125 -1.28125 C 3.953125 -1.28125 4.070312 -1.296875 4.1875 -1.328125 C 4.3125 -1.359375 4.441406 -1.40625 4.578125 -1.46875 Z M 5.109375 -0.140625 "/></g></g></g><g fill="#264790" fill-opacity="1"><g transform="translate(175.618819, 276.086759)"><g><path d="M 1.796875 -9.890625 C 2.085938 -9.890625 2.332031 -9.789062 2.53125 -9.59375 C 2.738281 -9.394531 2.84375 -9.148438 2.84375 -8.859375 C 2.84375 -8.566406 2.738281 -8.320312 2.53125 -8.125 C 2.332031 -7.925781 2.085938 -7.828125 1.796875 -7.828125 C 1.515625 -7.828125 1.273438 -7.925781 1.078125 -8.125 C 0.878906 -8.320312 0.78125 -8.566406 0.78125 -8.859375 C 0.78125 -9.148438 0.878906 -9.394531 1.078125 -9.59375 C 1.273438 -9.789062 1.515625 -9.890625 1.796875 -9.890625 Z M 2.71875 -6.84375 L 2.71875 0 L 0.875 0 L 0.875 -6.84375 Z M 2.71875 -6.84375 "/></g></g></g><g fill="#264790" fill-opacity="1"><g transform="translate(180.731833, 276.086759)"><g><path d="M 4.046875 0.171875 C 2.960938 0.171875 2.113281 -0.15625 1.5 -0.8125 C 0.894531 -1.46875 0.59375 -2.347656 0.59375 -3.453125 C 0.59375 -4.535156 0.910156 -5.398438 1.546875 -6.046875 C 2.179688 -6.703125 3.050781 -7.03125 4.15625 -7.03125 C 5.289062 -7.03125 6.171875 -6.691406 6.796875 -6.015625 C 7.421875 -5.347656 7.734375 -4.46875 7.734375 -3.375 C 7.734375 -2.28125 7.394531 -1.414062 6.71875 -0.78125 C 6.039062 -0.144531 5.148438 0.171875 4.046875 0.171875 Z M 5.84375 -3.375 C 5.84375 -4.019531 5.695312 -4.53125 5.40625 -4.90625 C 5.125 -5.28125 4.71875 -5.46875 4.1875 -5.46875 C 3.65625 -5.46875 3.238281 -5.300781 2.9375 -4.96875 C 2.632812 -4.644531 2.484375 -4.140625 2.484375 -3.453125 C 2.484375 -2.773438 2.613281 -2.257812 2.875 -1.90625 C 3.132812 -1.5625 3.53125 -1.390625 4.0625 -1.390625 C 4.59375 -1.390625 5.019531 -1.546875 5.34375 -1.859375 C 5.675781 -2.179688 5.84375 -2.6875 5.84375 -3.375 Z M 5.84375 -3.375 "/></g></g></g><g fill="#264790" fill-opacity="1"><g transform="translate(190.5613, 276.086759)"><g><path d="M 2.390625 -6.109375 C 2.703125 -6.421875 3.085938 -6.664062 3.546875 -6.84375 C 4.015625 -7.03125 4.429688 -7.125 4.796875 -7.125 C 5.734375 -7.125 6.394531 -6.847656 6.78125 -6.296875 C 7.175781 -5.753906 7.375 -5.085938 7.375 -4.296875 L 7.375 0 L 5.53125 0 L 5.53125 -4.203125 C 5.53125 -4.640625 5.425781 -4.972656 5.21875 -5.203125 C 5.019531 -5.429688 4.722656 -5.546875 4.328125 -5.546875 C 4.054688 -5.546875 3.773438 -5.476562 3.484375 -5.34375 C 3.203125 -5.207031 2.945312 -5.050781 2.71875 -4.875 L 2.71875 0 L 0.875 0 L 0.875 -6.84375 L 1.84375 -6.84375 Z M 2.390625 -6.109375 "/></g></g></g><g fill="#264790" fill-opacity="1"><g transform="translate(200.249558, 276.086759)"><g/></g></g><g fill="#264790" fill-opacity="1"><g transform="translate(205.080155, 276.086759)"><g><path d="M 1.140625 -7.359375 C 1.140625 -8.148438 1.375 -8.773438 1.84375 -9.234375 C 2.3125 -9.691406 2.96875 -9.921875 3.8125 -9.921875 C 4.03125 -9.921875 4.273438 -9.875 4.546875 -9.78125 C 4.816406 -9.695312 5.03125 -9.597656 5.1875 -9.484375 L 4.65625 -8.15625 C 4.519531 -8.207031 4.382812 -8.25 4.25 -8.28125 C 4.125 -8.3125 4.007812 -8.328125 3.90625 -8.328125 C 3.582031 -8.328125 3.347656 -8.210938 3.203125 -7.984375 C 3.054688 -7.753906 2.984375 -7.460938 2.984375 -7.109375 L 2.984375 -6.703125 L 4.28125 -6.703125 L 4.859375 -5.28125 L 2.984375 -5.28125 L 2.984375 0 L 1.140625 0 L 1.140625 -5.28125 L 0.078125 -5.28125 L 0.078125 -6.703125 L 1.140625 -6.703125 Z M 1.140625 -7.359375 "/></g></g></g><g fill="#264790" fill-opacity="1"><g transform="translate(211.83123, 276.086759)"><g><path d="M 4.046875 0.171875 C 2.960938 0.171875 2.113281 -0.15625 1.5 -0.8125 C 0.894531 -1.46875 0.59375 -2.347656 0.59375 -3.453125 C 0.59375 -4.535156 0.910156 -5.398438 1.546875 -6.046875 C 2.179688 -6.703125 3.050781 -7.03125 4.15625 -7.03125 C 5.289062 -7.03125 6.171875 -6.691406 6.796875 -6.015625 C 7.421875 -5.347656 7.734375 -4.46875 7.734375 -3.375 C 7.734375 -2.28125 7.394531 -1.414062 6.71875 -0.78125 C 6.039062 -0.144531 5.148438 0.171875 4.046875 0.171875 Z M 5.84375 -3.375 C 5.84375 -4.019531 5.695312 -4.53125 5.40625 -4.90625 C 5.125 -5.28125 4.71875 -5.46875 4.1875 -5.46875 C 3.65625 -5.46875 3.238281 -5.300781 2.9375 -4.96875 C 2.632812 -4.644531 2.484375 -4.140625 2.484375 -3.453125 C 2.484375 -2.773438 2.613281 -2.257812 2.875 -1.90625 C 3.132812 -1.5625 3.53125 -1.390625 4.0625 -1.390625 C 4.59375 -1.390625 5.019531 -1.546875 5.34375 -1.859375 C 5.675781 -2.179688 5.84375 -2.6875 5.84375 -3.375 Z M 5.84375 -3.375 "/></g></g></g><g fill="#264790" fill-opacity="1"><g transform="translate(221.660697, 276.086759)"><g><path d="M 4.640625 -6.84375 L 5 -5.375 C 4.6875 -5.375 4.328125 -5.285156 3.921875 -5.109375 C 3.515625 -4.929688 3.113281 -4.671875 2.71875 -4.328125 L 2.71875 0 L 0.875 0 L 0.875 -6.84375 L 1.84375 -6.84375 L 2.4375 -5.84375 C 2.726562 -6.09375 3.070312 -6.320312 3.46875 -6.53125 C 3.875 -6.738281 4.265625 -6.84375 4.640625 -6.84375 Z M 4.640625 -6.84375 "/></g></g></g><g fill="#264790" fill-opacity="1"><g transform="translate(228.214064, 276.086759)"><g/></g></g><g fill="#264790" fill-opacity="1"><g transform="translate(233.044661, 276.086759)"><g><path d="M 4.78125 -9.609375 C 5.707031 -9.609375 6.460938 -9.398438 7.046875 -8.984375 C 7.628906 -8.578125 7.921875 -7.890625 7.921875 -6.921875 C 7.921875 -6.566406 7.835938 -6.242188 7.671875 -5.953125 C 7.515625 -5.660156 7.300781 -5.414062 7.03125 -5.21875 C 7.46875 -4.988281 7.820312 -4.679688 8.09375 -4.296875 C 8.375 -3.910156 8.515625 -3.421875 8.515625 -2.828125 C 8.515625 -1.941406 8.207031 -1.25 7.59375 -0.75 C 6.976562 -0.25 6.15625 0 5.125 0 L 1.1875 0 L 1.1875 -9.609375 Z M 4.5 -8.078125 L 3.015625 -8.078125 L 3.015625 -5.6875 L 4.359375 -5.6875 C 4.867188 -5.6875 5.265625 -5.78125 5.546875 -5.96875 C 5.835938 -6.164062 5.984375 -6.472656 5.984375 -6.890625 C 5.984375 -7.347656 5.851562 -7.660156 5.59375 -7.828125 C 5.332031 -7.992188 4.96875 -8.078125 4.5 -8.078125 Z M 5.109375 -4.203125 L 3.015625 -4.203125 L 3.015625 -1.515625 L 4.984375 -1.515625 C 5.472656 -1.515625 5.863281 -1.625 6.15625 -1.84375 C 6.457031 -2.070312 6.609375 -2.394531 6.609375 -2.8125 C 6.609375 -3.257812 6.472656 -3.601562 6.203125 -3.84375 C 5.929688 -4.082031 5.566406 -4.203125 5.109375 -4.203125 Z M 5.109375 -4.203125 "/></g></g></g><g fill="#264790" fill-opacity="1"><g transform="translate(243.735525, 276.086759)"><g><path d="M 4.640625 -6.84375 L 5 -5.375 C 4.6875 -5.375 4.328125 -5.285156 3.921875 -5.109375 C 3.515625 -4.929688 3.113281 -4.671875 2.71875 -4.328125 L 2.71875 0 L 0.875 0 L 0.875 -6.84375 L 1.84375 -6.84375 L 2.4375 -5.84375 C 2.726562 -6.09375 3.070312 -6.320312 3.46875 -6.53125 C 3.875 -6.738281 4.265625 -6.84375 4.640625 -6.84375 Z M 4.640625 -6.84375 "/></g></g></g><g fill="#264790" fill-opacity="1"><g transform="translate(250.288892, 276.086759)"><g><path d="M 1.796875 -9.890625 C 2.085938 -9.890625 2.332031 -9.789062 2.53125 -9.59375 C 2.738281 -9.394531 2.84375 -9.148438 2.84375 -8.859375 C 2.84375 -8.566406 2.738281 -8.320312 2.53125 -8.125 C 2.332031 -7.925781 2.085938 -7.828125 1.796875 -7.828125 C 1.515625 -7.828125 1.273438 -7.925781 1.078125 -8.125 C 0.878906 -8.320312 0.78125 -8.566406 0.78125 -8.859375 C 0.78125 -9.148438 0.878906 -9.394531 1.078125 -9.59375 C 1.273438 -9.789062 1.515625 -9.890625 1.796875 -9.890625 Z M 2.71875 -6.84375 L 2.71875 0 L 0.875 0 L 0.875 -6.84375 Z M 2.71875 -6.84375 "/></g></g></g><g fill="#264790" fill-opacity="1"><g transform="translate(255.401906, 276.086759)"><g><path d="M 4.1875 -5.546875 C 3.550781 -5.546875 3.109375 -5.316406 2.859375 -4.859375 C 2.609375 -4.410156 2.484375 -3.945312 2.484375 -3.46875 C 2.484375 -2.9375 2.59375 -2.457031 2.8125 -2.03125 C 3.039062 -1.601562 3.5 -1.390625 4.1875 -1.390625 C 4.40625 -1.390625 4.632812 -1.4375 4.875 -1.53125 C 5.113281 -1.632812 5.335938 -1.753906 5.546875 -1.890625 L 5.546875 -5.0625 C 5.335938 -5.195312 5.113281 -5.3125 4.875 -5.40625 C 4.632812 -5.5 4.40625 -5.546875 4.1875 -5.546875 Z M 7.40625 -6.84375 L 7.40625 -0.015625 C 7.40625 0.816406 7.125 1.507812 6.5625 2.0625 C 6 2.625 5.113281 2.90625 3.90625 2.90625 C 3.601562 2.90625 3.175781 2.835938 2.625 2.703125 C 2.070312 2.566406 1.613281 2.378906 1.25 2.140625 L 1.796875 0.828125 C 2.210938 1.035156 2.570312 1.1875 2.875 1.28125 C 3.175781 1.375 3.503906 1.421875 3.859375 1.421875 C 4.398438 1.421875 4.816406 1.289062 5.109375 1.03125 C 5.398438 0.78125 5.546875 0.425781 5.546875 -0.03125 L 5.546875 -0.375 C 5.253906 -0.207031 4.941406 -0.078125 4.609375 0.015625 C 4.285156 0.117188 3.984375 0.171875 3.703125 0.171875 C 2.703125 0.171875 1.929688 -0.175781 1.390625 -0.875 C 0.859375 -1.570312 0.59375 -2.4375 0.59375 -3.46875 C 0.59375 -4.507812 0.875 -5.378906 1.4375 -6.078125 C 2.007812 -6.773438 2.789062 -7.125 3.78125 -7.125 C 4.125 -7.125 4.503906 -7.050781 4.921875 -6.90625 C 5.347656 -6.757812 5.710938 -6.550781 6.015625 -6.28125 L 6.4375 -6.84375 Z M 7.40625 -6.84375 "/></g></g></g><g fill="#264790" fill-opacity="1"><g transform="translate(265.259617, 276.086759)"><g><path d="M 2.796875 -6.40625 C 3.097656 -6.632812 3.441406 -6.8125 3.828125 -6.9375 C 4.222656 -7.0625 4.578125 -7.125 4.890625 -7.125 C 5.816406 -7.125 6.472656 -6.847656 6.859375 -6.296875 C 7.253906 -5.753906 7.453125 -5.085938 7.453125 -4.296875 L 7.453125 0 L 5.625 0 L 5.625 -4.203125 C 5.625 -4.640625 5.519531 -4.972656 5.3125 -5.203125 C 5.101562 -5.429688 4.796875 -5.546875 4.390625 -5.546875 C 4.128906 -5.546875 3.859375 -5.476562 3.578125 -5.34375 C 3.296875 -5.207031 3.035156 -5.050781 2.796875 -4.875 L 2.796875 0 L 0.96875 0 L 0.96875 -9.8125 L 2.796875 -9.96875 Z M 2.796875 -6.40625 "/></g></g></g><g fill="#264790" fill-opacity="1"><g transform="translate(275.018474, 276.086759)"><g><path d="M 5.109375 -0.140625 C 4.960938 -0.015625 4.75 0.0820312 4.46875 0.15625 C 4.1875 0.238281 3.941406 0.28125 3.734375 0.28125 C 2.878906 0.28125 2.207031 0.0664062 1.71875 -0.359375 C 1.238281 -0.785156 1 -1.394531 1 -2.1875 L 1 -5.421875 L 0.078125 -5.421875 L 0.078125 -6.84375 L 1 -6.84375 L 1 -8.46875 L 2.828125 -8.78125 L 2.828125 -6.84375 L 4.0625 -6.84375 L 4.640625 -5.421875 L 2.828125 -5.421875 L 2.828125 -2.515625 C 2.828125 -2.160156 2.910156 -1.863281 3.078125 -1.625 C 3.242188 -1.394531 3.492188 -1.28125 3.828125 -1.28125 C 3.953125 -1.28125 4.070312 -1.296875 4.1875 -1.328125 C 4.3125 -1.359375 4.441406 -1.40625 4.578125 -1.46875 Z M 5.109375 -0.140625 "/></g></g></g><g fill="#264790" fill-opacity="1"><g transform="translate(281.769549, 276.086759)"><g><path d="M 4.421875 0.171875 C 3.234375 0.171875 2.296875 -0.148438 1.609375 -0.796875 C 0.929688 -1.453125 0.59375 -2.328125 0.59375 -3.421875 C 0.59375 -4.515625 0.898438 -5.390625 1.515625 -6.046875 C 2.128906 -6.703125 2.972656 -7.03125 4.046875 -7.03125 C 5.117188 -7.03125 5.90625 -6.675781 6.40625 -5.96875 C 6.90625 -5.257812 7.15625 -4.421875 7.15625 -3.453125 L 7.15625 -2.875 L 2.546875 -2.875 C 2.628906 -2.425781 2.832031 -2.066406 3.15625 -1.796875 C 3.488281 -1.523438 3.925781 -1.390625 4.46875 -1.390625 C 4.769531 -1.390625 5.046875 -1.429688 5.296875 -1.515625 C 5.546875 -1.597656 5.835938 -1.710938 6.171875 -1.859375 L 6.703125 -0.53125 C 6.390625 -0.289062 6.003906 -0.113281 5.546875 0 C 5.085938 0.113281 4.710938 0.171875 4.421875 0.171875 Z M 5.421875 -4.109375 C 5.328125 -4.566406 5.15625 -4.90625 4.90625 -5.125 C 4.664062 -5.351562 4.363281 -5.46875 4 -5.46875 C 3.625 -5.46875 3.304688 -5.351562 3.046875 -5.125 C 2.796875 -4.894531 2.632812 -4.554688 2.5625 -4.109375 Z M 5.421875 -4.109375 "/></g></g></g><g fill="#264790" fill-opacity="1"><g transform="translate(290.963572, 276.086759)"><g><path d="M 4.640625 -6.84375 L 5 -5.375 C 4.6875 -5.375 4.328125 -5.285156 3.921875 -5.109375 C 3.515625 -4.929688 3.113281 -4.671875 2.71875 -4.328125 L 2.71875 0 L 0.875 0 L 0.875 -6.84375 L 1.84375 -6.84375 L 2.4375 -5.84375 C 2.726562 -6.09375 3.070312 -6.320312 3.46875 -6.53125 C 3.875 -6.738281 4.265625 -6.84375 4.640625 -6.84375 Z M 4.640625 -6.84375 "/></g></g></g><g fill="#264790" fill-opacity="1"><g transform="translate(297.52463, 276.086759)"><g/></g></g><g fill="#264790" fill-opacity="1"><g transform="translate(302.355228, 276.086759)"><g/></g></g><g fill="#264790" fill-opacity="1"><g transform="translate(307.192602, 276.086759)"><g><path d="M 5.71875 -4.0625 L 3.015625 -4.0625 L 3.015625 0 L 1.1875 0 L 1.1875 -9.609375 L 6.625 -9.609375 L 6.90625 -8.171875 L 3.015625 -8.171875 L 3.015625 -5.5 L 5.453125 -5.5 Z M 5.71875 -4.0625 "/></g></g></g><g fill="#264790" fill-opacity="1"><g transform="translate(315.751169, 276.086759)"><g><path d="M 5.75 -0.671875 C 5.4375 -0.378906 5.050781 -0.148438 4.59375 0.015625 C 4.144531 0.191406 3.738281 0.28125 3.375 0.28125 C 2.445312 0.28125 1.785156 0.00390625 1.390625 -0.546875 C 1.003906 -1.097656 0.8125 -1.765625 0.8125 -2.546875 L 0.8125 -6.84375 L 2.65625 -6.84375 L 2.65625 -2.625 C 2.65625 -2.195312 2.757812 -1.863281 2.96875 -1.625 C 3.175781 -1.394531 3.476562 -1.28125 3.875 -1.28125 C 4.113281 -1.28125 4.367188 -1.34375 4.640625 -1.46875 C 4.921875 -1.59375 5.171875 -1.734375 5.390625 -1.890625 L 5.390625 -6.84375 L 7.234375 -6.84375 L 7.234375 0 L 6.265625 0 Z M 5.75 -0.671875 "/></g></g></g><g fill="#264790" fill-opacity="1"><g transform="translate(325.368819, 276.086759)"><g><path d="M 5.109375 -0.140625 C 4.960938 -0.015625 4.75 0.0820312 4.46875 0.15625 C 4.1875 0.238281 3.941406 0.28125 3.734375 0.28125 C 2.878906 0.28125 2.207031 0.0664062 1.71875 -0.359375 C 1.238281 -0.785156 1 -1.394531 1 -2.1875 L 1 -5.421875 L 0.078125 -5.421875 L 0.078125 -6.84375 L 1 -6.84375 L 1 -8.46875 L 2.828125 -8.78125 L 2.828125 -6.84375 L 4.0625 -6.84375 L 4.640625 -5.421875 L 2.828125 -5.421875 L 2.828125 -2.515625 C 2.828125 -2.160156 2.910156 -1.863281 3.078125 -1.625 C 3.242188 -1.394531 3.492188 -1.28125 3.828125 -1.28125 C 3.953125 -1.28125 4.070312 -1.296875 4.1875 -1.328125 C 4.3125 -1.359375 4.441406 -1.40625 4.578125 -1.46875 Z M 5.109375 -0.140625 "/></g></g></g><g fill="#264790" fill-opacity="1"><g transform="translate(332.119886, 276.086759)"><g><path d="M 5.75 -0.671875 C 5.4375 -0.378906 5.050781 -0.148438 4.59375 0.015625 C 4.144531 0.191406 3.738281 0.28125 3.375 0.28125 C 2.445312 0.28125 1.785156 0.00390625 1.390625 -0.546875 C 1.003906 -1.097656 0.8125 -1.765625 0.8125 -2.546875 L 0.8125 -6.84375 L 2.65625 -6.84375 L 2.65625 -2.625 C 2.65625 -2.195312 2.757812 -1.863281 2.96875 -1.625 C 3.175781 -1.394531 3.476562 -1.28125 3.875 -1.28125 C 4.113281 -1.28125 4.367188 -1.34375 4.640625 -1.46875 C 4.921875 -1.59375 5.171875 -1.734375 5.390625 -1.890625 L 5.390625 -6.84375 L 7.234375 -6.84375 L 7.234375 0 L 6.265625 0 Z M 5.75 -0.671875 "/></g></g></g><g fill="#264790" fill-opacity="1"><g transform="translate(341.737534, 276.086759)"><g><path d="M 4.640625 -6.84375 L 5 -5.375 C 4.6875 -5.375 4.328125 -5.285156 3.921875 -5.109375 C 3.515625 -4.929688 3.113281 -4.671875 2.71875 -4.328125 L 2.71875 0 L 0.875 0 L 0.875 -6.84375 L 1.84375 -6.84375 L 2.4375 -5.84375 C 2.726562 -6.09375 3.070312 -6.320312 3.46875 -6.53125 C 3.875 -6.738281 4.265625 -6.84375 4.640625 -6.84375 Z M 4.640625 -6.84375 "/></g></g></g><g fill="#264790" fill-opacity="1"><g transform="translate(348.290902, 276.086759)"><g><path d="M 4.421875 0.171875 C 3.234375 0.171875 2.296875 -0.148438 1.609375 -0.796875 C 0.929688 -1.453125 0.59375 -2.328125 0.59375 -3.421875 C 0.59375 -4.515625 0.898438 -5.390625 1.515625 -6.046875 C 2.128906 -6.703125 2.972656 -7.03125 4.046875 -7.03125 C 5.117188 -7.03125 5.90625 -6.675781 6.40625 -5.96875 C 6.90625 -5.257812 7.15625 -4.421875 7.15625 -3.453125 L 7.15625 -2.875 L 2.546875 -2.875 C 2.628906 -2.425781 2.832031 -2.066406 3.15625 -1.796875 C 3.488281 -1.523438 3.925781 -1.390625 4.46875 -1.390625 C 4.769531 -1.390625 5.046875 -1.429688 5.296875 -1.515625 C 5.546875 -1.597656 5.835938 -1.710938 6.171875 -1.859375 L 6.703125 -0.53125 C 6.390625 -0.289062 6.003906 -0.113281 5.546875 0 C 5.085938 0.113281 4.710938 0.171875 4.421875 0.171875 Z M 5.421875 -4.109375 C 5.328125 -4.566406 5.15625 -4.90625 4.90625 -5.125 C 4.664062 -5.351562 4.363281 -5.46875 4 -5.46875 C 3.625 -5.46875 3.304688 -5.351562 3.046875 -5.125 C 2.796875 -4.894531 2.632812 -4.554688 2.5625 -4.109375 Z M 5.421875 -4.109375 "/></g></g></g></svg>